<?xml version="1.0" standalone="no"?>
<!DOCTYPE svg PUBLIC "-//W3C//DTD SVG 20010904//EN"
 "http://www.w3.org/TR/2001/REC-SVG-20010904/DTD/svg10.dtd">
<svg version="1.0" xmlns="http://www.w3.org/2000/svg"
 width="550.000000pt" height="501.000000pt" viewBox="0 0 550.000000 501.000000"
 preserveAspectRatio="xMidYMid meet">
<metadata>
Created by potrace 1.14, written by Peter Selinger 2001-2017
</metadata>
<g transform="translate(0.000000,501.000000) scale(0.100000,-0.100000)"
fill="#4B4B4B" stroke="none">
<path d="M3960 4254 c-47 -7 -200 -29 -340 -48 -140 -20 -399 -56 -575 -81
-176 -25 -336 -48 -355 -50 -19 -2 -161 -22 -315 -44 -154 -22 -410 -58 -570
-80 -159 -23 -420 -59 -579 -82 -159 -22 -306 -47 -328 -56 -21 -8 -49 -28
-63 -44 -46 -55 -45 -74 15 -499 16 -113 45 -320 64 -460 35 -248 79 -565 186
-1320 56 -399 66 -436 130 -479 33 -21 42 -23 130 -18 52 4 187 20 300 36 113
16 322 46 465 66 143 20 368 52 500 70 132 19 263 37 290 41 28 3 185 25 350
49 165 24 323 46 350 49 151 18 827 118 864 128 56 15 108 59 120 103 14 53
10 96 -60 585 -67 475 -100 707 -104 740 -2 19 -25 181 -50 360 -26 179 -64
451 -86 605 -22 154 -46 303 -54 332 -15 52 -59 102 -93 104 -72 6 -118 4
-192 -7z m-434 -434 c75 -47 93 -162 34 -221 l-27 -27 23 -11 c34 -15 51 -48
64 -126 6 -38 18 -78 27 -87 18 -21 14 -23 -59 -33 -56 -7 -60 -1 -78 99 -15
89 -29 100 -120 92 -41 -4 -79 -11 -83 -15 -4 -4 -1 -51 7 -104 9 -53 16 -99
16 -101 0 -6 -100 -19 -106 -14 -7 7 -75 498 -72 516 3 13 27 20 118 33 165
23 216 23 256 -1z m-486 -212 c33 -244 30 -287 -23 -345 -53 -59 -211 -82
-288 -43 -71 37 -86 78 -124 337 -24 171 -24 171 33 174 17 1 37 2 44 3 8 1
21 -60 40 -188 28 -194 39 -228 83 -248 33 -15 92 -1 121 27 18 18 24 35 24
69 0 39 -33 296 -45 353 -5 22 6 26 86 31 l25 2 24 -172z m-696 71 c23 -6 57
-29 86 -58 61 -61 83 -126 84 -241 1 -76 -2 -90 -29 -139 -35 -63 -78 -95
-155 -114 -165 -42 -283 35 -323 210 -37 162 31 306 163 341 49 14 128 14 174
1z m-454 -63 c0 -2 -29 -82 -64 -178 l-64 -173 14 -90 c7 -49 14 -95 14 -102
0 -11 -97 -30 -106 -20 -3 3 -12 48 -20 101 l-14 97 -115 152 -114 152 32 7
c93 20 89 23 168 -97 l72 -110 18 55 c10 30 27 87 39 127 20 71 21 72 58 76
64 6 82 7 82 3z m1727 -537 c93 -45 147 -150 147 -290 0 -155 -86 -247 -240
-257 -85 -5 -127 7 -181 53 -75 64 -117 206 -94 317 13 60 54 126 96 154 74
48 198 59 272 23z m-599 -91 c43 -20 84 -65 96 -104 6 -19 2 -22 -43 -28 -46
-6 -50 -5 -85 30 -35 35 -38 36 -96 32 -49 -3 -66 -10 -90 -33 -39 -37 -53
-83 -48 -158 7 -117 66 -187 157 -187 75 0 141 56 141 120 0 21 0 22 -114 6
-8 -1 -28 74 -22 81 4 4 218 35 221 31 6 -7 41 -279 36 -282 -3 -2 -19 -6 -36
-7 -26 -4 -31 0 -39 28 l-10 31 -40 -42 c-124 -126 -339 -60 -392 120 -45 154
3 296 119 356 81 41 166 43 245 6z m-613 -78 c74 -35 117 -89 140 -175 39
-153 -2 -293 -103 -344 -97 -49 -208 -46 -288 9 -91 63 -141 245 -100 367 17
50 67 108 116 134 65 33 176 38 235 9z m-715 -309 c16 -118 31 -215 33 -216 1
-1 60 6 131 17 144 22 146 21 146 -43 l0 -35 -172 -24 c-95 -13 -180 -24 -187
-24 -12 -1 -23 55 -53 263 -21 146 -36 266 -34 268 7 7 101 19 103 13 1 -3 16
-101 33 -219z m2071 -290 c3 -27 2 -44 -5 -46 -6 -2 -71 -11 -144 -21 l-132
-17 6 -51 c4 -28 10 -54 13 -59 4 -4 64 1 133 11 l126 18 7 -44 c4 -24 5 -45
3 -46 -2 -2 -59 -11 -128 -20 -69 -10 -126 -18 -127 -20 -1 -1 3 -34 9 -73 6
-46 14 -70 22 -67 14 5 280 44 282 41 9 -9 14 -97 6 -97 -6 0 -87 -11 -182
-25 -95 -14 -182 -25 -194 -25 -21 0 -23 10 -56 243 -19 133 -34 253 -35 267
0 24 2 25 180 51 99 15 187 26 195 25 10 -1 17 -16 21 -45z m-591 -66 c82 -43
107 -166 45 -228 l-25 -25 26 -17 c30 -20 49 -61 59 -130 4 -27 14 -60 21 -73
17 -26 15 -27 -58 -37 -26 -3 -49 -2 -52 4 -3 5 -13 44 -21 86 -20 107 -22
109 -120 101 -44 -4 -83 -10 -86 -14 -4 -4 0 -51 8 -105 8 -55 13 -100 11
-102 -2 -2 -26 -7 -54 -10 l-51 -7 -18 133 c-9 74 -25 192 -36 264 -10 71 -16
132 -13 135 9 8 214 37 277 39 34 0 70 -5 87 -14z m-490 -74 c0 -16 2 -36 5
-44 5 -11 -20 -17 -122 -31 -173 -24 -165 -20 -158 -64 14 -87 0 -80 127 -61
154 24 145 26 153 -22 4 -22 5 -43 2 -46 -3 -3 -61 -13 -129 -22 l-123 -17 2
-30 c1 -16 5 -49 8 -72 6 -39 9 -43 28 -38 12 2 78 13 145 22 138 19 142 18
142 -43 0 -30 -3 -32 -42 -38 -24 -3 -113 -17 -198 -29 -85 -13 -158 -21 -161
-17 -4 3 -14 67 -24 141 -9 74 -25 191 -35 260 -10 69 -17 126 -16 127 3 4
333 51 364 52 29 1 32 -2 32 -28z m-496 -307 c21 -146 37 -267 35 -268 -2 -2
-27 -7 -55 -11 l-51 -6 -16 117 c-9 64 -18 119 -20 120 -4 4 -200 -25 -205
-31 -3 -2 3 -55 12 -116 9 -62 13 -116 9 -120 -5 -3 -29 -9 -54 -11 l-47 -5
-10 71 c-41 279 -65 457 -61 460 2 3 27 8 55 11 l51 7 7 -43 c3 -24 9 -69 12
-99 4 -30 8 -56 9 -58 5 -5 193 20 203 27 6 4 4 39 -4 86 -20 125 -21 123 29
128 23 2 47 4 53 5 7 1 25 -97 48 -264z"/>
<path d="M3331 3739 c-30 -5 -57 -11 -59 -14 -2 -2 -1 -36 3 -75 l7 -72 57 7
c122 14 151 31 151 88 0 13 -9 36 -21 51 -22 29 -42 31 -138 15z"/>
<path d="M2203 3589 c-40 -12 -79 -58 -94 -111 -13 -50 1 -144 29 -191 59
-102 197 -101 249 2 42 82 11 235 -57 282 -32 23 -86 30 -127 18z"/>
<path d="M3453 3003 c-36 -7 -80 -56 -93 -102 -13 -48 -6 -127 17 -183 40
-100 161 -127 236 -52 70 70 48 264 -37 319 -27 18 -86 26 -123 18z"/>
<path d="M2252 2830 c-73 -17 -107 -81 -100 -184 8 -125 75 -202 167 -193 110
12 158 121 116 264 -15 50 -69 113 -98 113 -7 0 -21 2 -32 4 -11 3 -35 1 -53
-4z"/>
<path d="M2982 2157 l-64 -10 6 -46 c11 -81 17 -101 29 -101 39 0 146 23 165
36 31 21 30 77 -3 109 -26 27 -36 28 -133 12z"/>
<path d="M4830 4070 c-25 -4 -72 -11 -105 -14 -111 -13 -317 -45 -322 -50 -3
-3 9 -103 26 -223 74 -520 122 -860 126 -893 4 -32 46 -330 111 -785 70 -490
73 -529 50 -609 -40 -138 -132 -184 -445 -222 l-143 -18 7 -50 c14 -109 71
-190 151 -216 35 -12 130 -10 219 5 77 12 526 76 664 94 85 11 156 23 159 26
6 6 -4 86 -63 500 -24 171 -62 441 -84 600 -48 337 -114 811 -176 1250 -24
171 -51 364 -60 430 -9 66 -18 135 -22 153 -6 35 -10 36 -93 22z"/>
<path d="M589 3475 c-42 -7 -150 -23 -240 -35 -90 -11 -165 -23 -167 -25 -5
-5 7 -93 158 -1165 23 -157 43 -301 45 -320 2 -19 22 -163 45 -320 65 -462
128 -906 145 -1035 9 -66 19 -122 21 -124 2 -2 43 2 91 8 108 16 261 36 413
56 117 16 231 33 400 62 146 24 203 62 225 149 11 42 12 153 1 179 -3 9 -45 6
-163 -12 -196 -30 -328 -29 -388 3 -22 11 -55 40 -72 63 -60 78 -57 60 -213
1161 -23 157 -43 301 -45 320 -4 32 -23 169 -116 823 -27 188 -35 227 -48 226
-9 -1 -50 -7 -92 -14z"/>
</g>
</svg>
